<?xml version="1.0" standalone="no"?>
<!DOCTYPE svg PUBLIC "-//W3C//DTD SVG 20010904//EN"
 "http://www.w3.org/TR/2001/REC-SVG-20010904/DTD/svg10.dtd">
<svg version="1.0" xmlns="http://www.w3.org/2000/svg"
 width="916.000000pt" height="548.000000pt" viewBox="0 0 916.000000 548.000000"
 preserveAspectRatio="xMidYMid meet">

<g transform="translate(0.000000,548.000000) scale(0.100000,-0.100000)"
fill="#000000" stroke="none">
<path d="M4497 5443 c-3 -5 -13 -49 -22 -98 -9 -50 -23 -112 -32 -140 -21 -69
-84 -185 -138 -255 -80 -104 -100 -170 -71 -235 l13 -30 12 44 c14 48 50 91
78 91 37 0 63 -29 63 -69 0 -42 -23 -81 -97 -168 -24 -28 -48 -66 -53 -85 -13
-43 -13 -105 0 -113 6 -3 10 2 10 13 0 26 45 65 120 102 36 18 75 41 88 53
l22 21 28 -26 c15 -14 62 -47 104 -73 43 -25 86 -57 97 -71 28 -35 34 -30 26
23 -9 59 -26 93 -83 163 -99 121 -109 220 -22 220 34 0 67 -37 76 -86 11 -62
35 -49 49 27 11 58 -11 112 -81 200 -96 121 -109 153 -154 368 -15 73 -30 130
-33 124z"/>
<path d="M4193 4518 c-71 -99 -91 -184 -74 -299 21 -133 35 -161 128 -257 146
-149 171 -194 113 -207 -17 -4 -51 -23 -77 -42 -39 -30 -49 -33 -69 -24 -29
13 -77 87 -132 201 -72 152 -150 214 -284 227 -58 5 -190 -7 -258 -25 -25 -6
-25 -6 5 -13 17 -4 47 -7 68 -8 21 0 74 -13 118 -28 66 -22 91 -37 139 -83 70
-66 86 -114 53 -158 -37 -49 -123 -36 -123 18 0 10 5 22 10 25 6 3 10 -5 10
-18 0 -39 61 -53 80 -18 16 32 12 55 -18 88 -45 49 -89 67 -158 67 -64 0 -57
3 -203 -89 -30 -19 -58 -36 -62 -37 -5 -2 4 -48 20 -103 27 -92 33 -103 83
-151 44 -42 64 -54 110 -64 73 -17 127 0 143 44 8 25 6 31 -18 52 -23 20 -32
22 -49 13 -16 -9 -19 -8 -16 3 5 15 40 22 73 14 30 -8 51 -57 36 -85 -16 -28
-69 -66 -114 -81 -79 -25 -288 26 -361 89 -41 34 17 -49 65 -94 80 -75 171
-107 314 -109 67 -1 76 2 205 65 135 66 186 84 207 71 5 -4 13 -29 16 -57 3
-27 9 -62 13 -77 5 -24 2 -29 -29 -42 -19 -8 -71 -19 -114 -26 -209 -30 -255
-45 -319 -108 -60 -58 -107 -182 -119 -315 l-5 -62 32 67 c73 150 178 246 280
256 41 4 53 1 73 -18 16 -15 25 -34 25 -54 0 -37 -7 -49 -39 -66 -20 -10 -26
-9 -45 10 l-21 22 23 -12 c20 -10 27 -9 43 6 36 33 13 84 -38 84 -38 0 -108
-44 -132 -83 -38 -61 -44 -120 -21 -196 11 -38 23 -89 26 -115 l7 -46 66 -2
c119 -4 147 0 207 29 97 48 151 154 114 224 -22 41 -100 15 -100 -34 -1 -19
-2 -20 -10 -5 -14 23 4 66 34 79 60 28 104 -19 113 -120 5 -53 2 -62 -42 -141
-59 -107 -87 -144 -139 -182 -31 -23 -35 -28 -16 -23 146 44 217 102 281 233
47 96 57 153 41 228 -6 27 -14 95 -18 150 l-7 102 54 -15 c50 -13 125 -12 164
3 21 8 20 -75 -1 -204 -38 -233 19 -342 239 -451 56 -28 106 -51 110 -51 5 0
-19 24 -52 53 -124 108 -196 256 -170 350 17 61 78 86 127 51 37 -26 25 -94
-17 -94 -11 0 -11 3 4 13 13 10 16 21 11 40 -8 33 -40 43 -71 23 -66 -43 2
-197 105 -239 21 -9 80 -16 149 -18 l113 -4 30 80 c26 71 29 89 25 154 -5 61
-11 82 -34 115 -37 52 -87 86 -127 86 -41 0 -56 -16 -56 -57 0 -34 29 -61 52
-47 7 4 8 3 4 -4 -22 -35 -86 8 -86 58 0 63 65 86 165 59 52 -14 190 -151 229
-229 l28 -55 -5 75 c-7 120 -62 209 -189 305 -32 24 -73 47 -91 50 -18 3 -86
14 -152 24 -138 22 -179 37 -169 60 24 56 33 91 34 126 0 34 5 43 30 58 28 17
32 17 62 1 18 -9 70 -43 115 -76 155 -111 253 -135 370 -90 54 20 163 90 223
143 l35 30 -55 -21 c-30 -12 -64 -26 -76 -30 -11 -4 -54 -13 -96 -19 -106 -17
-204 5 -248 55 -35 41 -38 71 -9 108 28 35 72 35 95 0 13 -19 14 -28 5 -37 -8
-8 -11 -5 -11 11 0 28 -24 38 -56 23 -21 -9 -25 -17 -22 -43 9 -90 193 -95
275 -6 12 12 39 55 60 93 22 39 46 80 53 92 14 22 11 26 -55 93 -56 56 -80 73
-129 90 -33 11 -71 20 -85 20 -46 0 -101 -21 -131 -48 -40 -38 -46 -66 -20
-92 29 -29 72 -24 82 10 6 23 7 23 5 -5 -3 -41 -49 -65 -86 -44 -42 24 -49 63
-22 113 36 69 76 99 176 131 66 21 111 29 167 29 l77 1 -37 19 c-50 26 -128
46 -179 46 -51 0 -180 -40 -248 -78 -31 -17 -60 -44 -79 -72 -101 -155 -168
-228 -215 -236 -20 -3 -46 -9 -58 -14 -28 -12 -83 17 -83 43 0 31 48 92 138
174 136 125 174 216 147 349 -14 64 -100 262 -110 252 -3 -2 2 -39 10 -82 35
-184 -39 -386 -143 -386 -35 0 -72 38 -72 74 0 39 15 56 50 56 l25 0 -25 -13
c-49 -24 -34 -87 21 -87 41 0 81 63 87 135 7 84 -28 143 -130 225 -44 36 -84
66 -89 68 -4 2 -39 -17 -77 -42 -69 -44 -105 -82 -136 -143 -21 -41 -21 -144
-1 -183 28 -54 84 -66 111 -25 19 30 11 62 -19 68 -19 4 -18 4 5 6 53 2 65
-76 16 -112 -18 -14 -34 -18 -53 -13 -38 10 -112 87 -125 132 -19 69 -24 243
-7 297 8 26 14 47 13 47 -2 0 -16 -19 -33 -42z"/>
<path d="M3130 4159 c-185 -70 -180 -68 -300 -69 -64 0 -153 5 -199 10 -46 6
-85 9 -87 7 -2 -2 38 -25 89 -52 172 -90 240 -147 346 -290 68 -91 118 -125
183 -125 26 0 48 2 48 5 0 2 -12 11 -27 19 -50 26 -73 55 -73 91 0 26 6 39 25
51 23 15 30 15 63 2 29 -11 51 -34 102 -108 51 -73 75 -99 110 -117 25 -12 55
-23 67 -23 21 0 20 1 -7 28 -22 22 -30 43 -39 102 -7 41 -19 93 -27 115 -18
52 -18 52 9 59 12 3 57 37 100 76 42 38 89 73 102 76 54 13 15 34 -66 34 -29
0 -76 -13 -132 -35 -83 -34 -152 -44 -192 -29 -25 10 -37 50 -23 79 13 30 37
39 101 38 26 0 47 3 47 7 0 24 -90 70 -137 70 -15 -1 -53 -10 -83 -21z"/>
<path d="M5715 4143 c-12 -2 -34 -15 -50 -28 l-30 -24 47 -1 c83 0 115 -28
106 -91 -2 -18 -14 -28 -43 -38 -38 -13 -44 -12 -146 28 -58 22 -121 41 -140
41 -44 0 -106 -17 -115 -32 -5 -8 -2 -9 9 -5 30 11 70 -13 147 -87 41 -40 81
-75 89 -77 11 -4 11 -10 -2 -36 -9 -17 -26 -70 -38 -117 -12 -48 -32 -103 -46
-122 l-23 -35 22 6 c62 19 104 54 162 135 91 125 164 163 202 105 25 -38 11
-69 -46 -106 -42 -27 -48 -34 -34 -42 24 -14 101 0 141 24 18 12 56 54 84 95
92 136 118 158 324 273 124 69 123 70 -54 50 -126 -15 -210 -3 -371 51 -111
37 -145 43 -195 33z"/>
<path d="M3665 2886 c-27 -46 -30 -59 -35 -180 -4 -95 -11 -140 -23 -163 -22
-42 -52 -51 -86 -25 -21 16 -26 27 -24 60 1 22 9 54 18 71 32 63 -57 16 -94
-49 -21 -37 -23 -56 -25 -183 -3 -160 -6 -170 -103 -376 -29 -63 -52 -115 -51
-117 2 -1 45 35 96 80 117 105 188 146 315 186 182 56 247 101 247 169 l0 24
-22 -20 c-54 -49 -94 -54 -135 -19 l-28 24 18 37 c21 43 64 65 182 90 72 16
85 23 128 65 51 51 64 81 22 54 -20 -13 -39 -15 -88 -10 -34 3 -95 9 -134 12
-73 7 -73 7 -73 36 0 16 -14 64 -31 106 -17 43 -34 100 -38 127 l-7 50 -29
-49z"/>
<path d="M5240 2891 c16 -32 8 -67 -40 -163 -22 -45 -40 -91 -40 -102 0 -20
-5 -21 -148 -21 -81 0 -153 4 -159 8 -26 17 -12 -11 23 -46 38 -37 67 -50 191
-86 75 -22 143 -72 143 -105 0 -21 -44 -66 -64 -66 -7 0 -37 15 -65 34 l-51
35 0 -25 c0 -47 43 -105 100 -134 13 -7 58 -21 100 -32 135 -33 218 -87 423
-277 l28 -26 -17 40 c-9 22 -31 69 -49 105 -59 118 -76 190 -81 350 -6 163
-19 216 -65 255 -42 35 -52 31 -34 -11 27 -65 19 -106 -26 -129 -27 -14 -30
-14 -61 14 l-33 29 0 134 c-1 144 -7 170 -60 218 l-28 25 13 -24z"/>
<path d="M201 2464 c-135 -36 -200 -120 -188 -244 6 -72 27 -111 90 -173 36
-35 52 -45 58 -36 6 11 14 10 41 -3 l33 -17 -34 6 c-22 4 -32 2 -28 -4 8 -13
151 -83 170 -83 8 0 28 -7 43 -15 17 -9 40 -13 56 -9 15 3 36 0 47 -6 17 -8
21 -8 21 4 0 8 6 17 13 19 7 3 5 6 -5 6 -10 1 -18 6 -18 11 0 6 -5 10 -10 10
-7 0 -7 -7 1 -21 9 -17 8 -20 -3 -16 -7 3 -32 11 -56 18 -34 9 -40 14 -31 25
9 11 5 16 -16 24 -15 6 -35 12 -44 13 -9 1 -42 17 -74 35 -31 18 -68 33 -81
34 -14 1 -22 6 -20 10 3 5 -14 31 -39 58 -107 119 -78 257 66 321 111 49 323
23 426 -51 34 -25 40 -27 31 -11 -14 27 -88 69 -161 92 -74 23 -209 24 -288 3z"/>
<path d="M6192 2464 c-67 -18 -100 -35 -136 -71 -40 -39 -56 -83 -56 -153 0
-77 31 -142 97 -200 91 -80 251 -152 340 -154 51 -1 47 7 -11 24 -34 9 -43 16
-39 30 4 14 -3 20 -29 26 -18 4 -37 7 -42 5 -5 -1 -12 2 -15 6 -8 12 -121 75
-121 67 0 -3 -21 16 -46 41 -55 56 -83 115 -84 172 0 57 12 84 55 126 110 107
364 97 524 -20 24 -17 24 -17 10 5 -19 32 -103 78 -174 97 -73 19 -202 18
-273 -1z m27 -471 c3 -2 -11 0 -30 3 -41 8 -43 10 -34 23 5 9 30 -1 64 -26z"/>
<path d="M425 1940 c3 -5 11 -10 16 -10 6 0 7 5 4 10 -3 6 -11 10 -16 10 -6 0
-7 -4 -4 -10z"/>
<path d="M6415 1940 c3 -5 11 -10 16 -10 6 0 7 5 4 10 -3 6 -11 10 -16 10 -6
0 -7 -4 -4 -10z"/>
<path d="M6483 1900 c7 -17 14 -25 16 -18 2 7 9 16 15 20 7 5 4 8 -6 8 -10 0
-18 5 -18 10 0 6 -4 10 -9 10 -5 0 -4 -14 2 -30z"/>
<path d="M559 1904 c9 -19 18 -21 77 -20 52 1 72 -2 90 -17 25 -19 31 -13 14
13 -7 11 -29 15 -87 15 -57 0 -82 4 -91 15 -11 13 -12 12 -3 -6z"/>
<path d="M6546 1907 c7 -21 44 -44 44 -27 0 16 30 12 36 -5 4 -9 19 -15 36
-15 17 0 27 -4 23 -10 -3 -6 4 -10 17 -10 l22 0 -22 16 c-12 8 -31 16 -41 17
-11 1 -18 4 -16 7 6 9 65 0 65 -10 0 -4 6 -10 14 -13 9 -4 12 0 9 13 -4 14
-18 20 -59 26 -30 3 -66 4 -81 1 -18 -3 -32 0 -40 11 -12 16 -13 15 -7 -1z"/>
<path d="M6797 1879 c7 -7 15 -10 18 -7 3 3 -2 9 -12 12 -14 6 -15 5 -6 -5z"/>
<path d="M818 1873 c7 -3 16 -2 19 1 4 3 -2 6 -13 5 -11 0 -14 -3 -6 -6z"/>
<path d="M854 1871 c3 -5 19 -14 35 -21 17 -7 29 -17 28 -24 -1 -7 26 -12 81
-14 50 -2 81 1 78 7 -9 14 25 23 41 10 12 -11 88 -9 238 6 17 1 107 6 200 10
243 11 471 -19 665 -87 85 -30 185 -76 178 -83 -1 -2 -30 2 -62 7 -43 8 -65 7
-77 0 -10 -7 -20 -8 -23 -3 -6 9 -74 -1 -116 -17 -19 -7 -34 -5 -65 10 -34 18
-44 19 -72 9 -18 -7 -37 -10 -43 -6 -5 3 -36 8 -67 11 -115 10 -148 13 -168
13 -11 0 -36 0 -55 0 -19 1 -46 -2 -60 -5 -22 -5 -21 -7 18 -24 l42 -19 0
-164 0 -164 -30 -6 c-30 -6 -43 -27 -17 -27 8 0 22 -9 31 -19 15 -17 17 -35
14 -113 -4 -110 -21 -143 -94 -178 -39 -19 -58 -22 -133 -18 -149 7 -192 52
-199 209 -4 84 -3 88 21 103 29 20 59 15 130 -21 51 -25 75 -24 41 2 -24 19
-119 55 -161 62 l-33 6 0 98 c0 68 -4 98 -11 97 -6 -2 -14 3 -16 10 -3 6 2 12
11 12 23 0 20 37 -4 45 -11 3 -20 9 -20 13 1 17 53 64 81 74 23 8 27 13 17 19
-20 13 -70 10 -101 -6 -15 -8 -25 -9 -21 -4 4 8 -1 9 -16 4 -14 -4 -25 -3 -30
5 -5 9 -13 9 -27 1 -14 -7 -31 -7 -54 -1 -18 6 -42 7 -53 4 -17 -6 -16 -8 10
-30 16 -13 34 -23 41 -24 6 0 15 -5 18 -10 8 -13 -14 -42 -26 -34 -5 3 -9 -20
-9 -50 0 -31 5 -56 10 -56 6 0 10 -7 10 -15 0 -8 -4 -15 -10 -15 -6 0 -10 -30
-10 -70 0 -62 -2 -70 -19 -70 -26 0 -171 -73 -210 -105 -106 -90 -94 -263 26
-383 52 -52 205 -134 253 -136 15 -1 26 -4 24 -7 -4 -7 79 -26 146 -34 25 -3
53 -8 63 -11 10 -3 24 0 32 6 14 11 39 9 79 -6 15 -6 15 -3 0 30 -10 20 -24
36 -31 36 -18 0 -16 -6 10 -31 l22 -21 -25 7 c-14 5 -41 9 -60 11 -19 1 -36 3
-37 4 -3 2 -16 6 -30 9 -5 1 -1 6 7 11 25 17 -8 31 -62 27 -27 -2 -49 0 -51 6
-4 13 -121 49 -163 51 -20 1 -30 5 -27 13 3 6 -13 21 -34 32 -87 45 -153 145
-153 233 0 88 45 144 155 194 78 36 85 28 85 -95 0 -112 14 -144 81 -187 84
-53 143 -67 279 -68 129 -1 189 9 265 47 93 45 115 85 115 207 0 77 3 93 20
110 11 11 27 20 35 20 8 0 15 4 15 9 0 11 -25 21 -51 21 -18 0 -19 9 -19 133
0 163 9 200 52 218 24 10 33 10 36 1 2 -7 11 -12 21 -12 37 0 41 -19 41 -187
l0 -163 -27 -6 c-45 -11 -46 -15 -11 -32 l33 -17 0 -145 0 -145 -43 -9 c-36
-8 -42 -13 -40 -30 3 -20 9 -21 201 -24 l197 -2 0 25 c0 20 -5 25 -26 25 -14
0 -34 5 -45 10 -17 10 -19 23 -19 150 l0 140 48 0 49 0 33 -87 c72 -193 111
-243 200 -262 115 -25 184 19 210 134 15 69 7 95 -30 95 -24 0 -29 -5 -32 -26
-4 -35 -27 -49 -64 -40 -33 8 -143 116 -168 164 l-17 32 40 0 c83 0 176 52
210 117 16 32 13 119 -5 156 -80 159 -392 295 -773 337 -126 14 -854 12 -845
-2 4 -6 -2 -6 -15 1 -13 7 -21 8 -21 2 0 -6 -6 -9 -12 -7 -34 11 -78 15 -74 7z
m206 -41 c0 -5 -7 -10 -16 -10 -8 0 -12 5 -9 10 3 6 10 10 16 10 5 0 9 -4 9
-10z m1226 -195 c-11 -8 -22 -12 -25 -9 -6 6 19 24 34 24 6 -1 1 -7 -9 -15z
m184 -5 c0 -5 -9 -14 -20 -20 -19 -10 -20 -10 -8 9 13 22 28 28 28 11z m-144
-45 c46 -35 64 -74 64 -137 0 -57 -16 -90 -53 -110 -33 -18 -106 -27 -164 -21
l-53 6 0 44 0 43 -25 -16 c-16 -10 -25 -12 -25 -5 0 6 11 16 25 23 22 10 24
17 27 92 l3 81 35 18 c48 25 120 17 166 -18z m-216 -24 c0 -10 -30 -24 -37
-17 -3 3 -2 9 2 15 8 13 35 15 35 2z m-930 -5 c0 -2 -7 -6 -15 -10 -8 -3 -15
-1 -15 4 0 6 7 10 15 10 8 0 15 -2 15 -4z m-84 -18 c4 -6 3 -8 -4 -4 -5 3 -12
1 -14 -6 -5 -13 -28 -2 -28 13 0 13 37 11 46 -3z m1464 -8 c0 -5 -4 -10 -10
-10 -5 0 -10 5 -10 10 0 6 5 10 10 10 6 0 10 -4 10 -10z m-1435 -10 c3 -5 1
-10 -4 -10 -6 0 -11 5 -11 10 0 6 2 10 4 10 3 0 8 -4 11 -10z m40 -130 c3 -5
1 -10 -4 -10 -6 0 -11 5 -11 10 0 6 2 10 4 10 3 0 8 -4 11 -10z m545 -60 c0
-5 -10 -10 -22 -10 -19 0 -20 2 -8 10 19 13 30 13 30 0z m-690 -585 l35 -13
-42 -1 c-40 -1 -60 9 -46 23 8 8 11 7 53 -9z m60 -5 c0 -5 -5 -10 -11 -10 -5
0 -7 5 -4 10 3 6 8 10 11 10 2 0 4 -4 4 -10z"/>
<path d="M6849 1866 c7 -9 19 -16 27 -16 7 0 18 -9 24 -20 9 -17 21 -20 90
-20 59 0 79 3 78 13 -2 7 5 10 17 8 32 -7 164 -6 235 1 180 18 416 20 536 4
149 -20 324 -63 425 -105 78 -33 135 -67 94 -57 -11 3 -46 8 -77 12 -45 5 -58
3 -58 -7 0 -9 -3 -10 -11 -2 -11 11 -100 -1 -129 -17 -9 -5 -29 -1 -54 12 -34
17 -45 19 -71 9 -20 -7 -42 -8 -62 -2 -37 11 -111 -2 -78 -13 51 -19 50 -14
53 -189 l2 -166 -27 -7 c-45 -11 -46 -15 -11 -32 l33 -17 0 -144 0 -145 -34
-9 c-22 -5 -42 -5 -55 2 -12 6 -30 10 -40 8 -10 -1 -21 4 -23 11 -3 6 2 12 11
12 34 0 32 8 -59 223 -15 37 -15 38 10 61 21 20 23 25 9 30 -8 3 -26 6 -38 6
-19 0 -31 21 -89 163 l-68 162 22 18 c12 9 29 17 38 17 14 0 14 2 1 10 -19 12
-76 13 -98 1 -11 -6 -26 -5 -41 4 -20 10 -30 10 -56 -1 -20 -8 -36 -9 -46 -3
-16 10 -60 12 -84 3 -14 -6 -11 -10 14 -20 17 -7 31 -20 31 -29 0 -9 -27 -80
-60 -158 -61 -146 -69 -170 -48 -149 13 13 58 16 58 4 0 -17 -26 -32 -56 -32
-37 0 -66 -23 -57 -46 4 -12 -32 -104 -104 -261 -11 -23 -22 -33 -38 -33 -36
0 -55 -11 -55 -31 0 -18 9 -19 140 -19 132 0 140 1 140 20 0 14 -9 21 -35 26
-19 3 -38 10 -40 14 -4 7 65 196 81 222 3 4 22 1 43 -7 22 -7 42 -11 45 -8 3
4 17 0 30 -7 23 -12 78 -10 131 4 17 5 25 -6 52 -62 64 -133 91 -172 119 -172
22 0 25 -2 14 -15 -11 -13 -8 -15 14 -15 14 0 26 -4 26 -10 0 -5 -7 -10 -14
-10 -11 0 -7 -15 16 -62 37 -74 61 -103 83 -94 9 3 32 -3 53 -14 43 -23 75
-28 51 -7 -8 6 -25 25 -39 40 -21 24 -22 30 -10 37 12 8 11 10 -5 11 -11 1
-24 1 -28 0 -5 -1 -6 3 -2 9 3 6 11 8 16 5 12 -8 11 -1 -2 29 -7 14 -16 23
-20 20 -5 -3 -9 6 -9 20 0 14 5 28 10 31 6 3 10 1 10 -4 0 -8 66 -11 201 -11
l200 0 -3 22 c-2 18 -12 24 -41 29 -20 3 -41 9 -45 13 -4 4 -7 69 -7 144 l0
137 50 3 50 2 49 -127 c62 -158 100 -204 186 -222 131 -26 210 42 210 183 0
44 -1 46 -28 46 -23 0 -30 -6 -37 -32 -8 -27 -16 -34 -42 -36 -28 -3 -42 5
-89 50 -50 47 -114 127 -114 142 0 3 17 6 39 6 83 0 182 55 207 116 33 80 11
158 -67 236 -75 75 -255 166 -404 202 -234 58 -250 59 -718 63 -327 3 -437 1
-432 -8 6 -8 2 -8 -14 0 -14 8 -21 8 -21 1 0 -10 -20 -8 -75 7 -17 5 -18 4 -6
-11z m196 -36 c-3 -5 -11 -10 -16 -10 -6 0 -7 5 -4 10 3 6 11 10 16 10 6 0 7
-4 4 -10z m1227 -198 l-23 -18 36 -12 c94 -35 129 -198 55 -254 -34 -24 -115
-38 -183 -31 l-57 6 0 39 c0 36 -2 38 -20 28 -13 -7 -20 -7 -20 0 0 5 9 15 20
22 17 11 20 24 20 82 0 60 -2 67 -15 56 -9 -7 -18 -10 -21 -7 -9 9 6 27 22 27
8 0 27 9 43 21 15 11 47 23 69 26 23 3 47 12 53 19 6 8 19 14 28 14 12 0 11
-4 -7 -18z m183 -1 c3 -6 -4 -15 -15 -21 -19 -10 -20 -10 -8 9 15 24 15 24 23
12z m95 -95 c0 -3 -4 -8 -10 -11 -5 -3 -10 -1 -10 4 0 6 5 11 10 11 6 0 10 -2
10 -4z m-1125 -217 c5 -14 1 -19 -14 -19 -11 0 -23 -4 -26 -10 -3 -5 1 -10 9
-10 18 0 56 -34 56 -50 0 -6 -12 -15 -26 -21 -32 -11 -119 10 -154 39 l-22 17
31 79 c18 43 41 96 52 119 l21 41 34 -83 c18 -46 36 -92 39 -102z m-325 -319
c0 -5 -4 -10 -10 -10 -5 0 -10 5 -10 10 0 6 5 10 10 10 6 0 10 -4 10 -10z
m-27 -45 c-6 -17 -29 -20 -38 -6 -6 11 25 32 37 25 4 -3 5 -11 1 -19z m-103
-20 c0 -8 -4 -15 -10 -15 -5 0 -10 7 -10 15 0 8 5 15 10 15 6 0 10 -7 10 -15z
m750 -74 c-7 -14 -7 -20 2 -23 6 -2 9 -11 6 -18 -3 -10 -10 -5 -21 16 -17 32
-14 44 10 44 10 0 11 -5 3 -19z m30 -71 c0 -5 -4 -10 -10 -10 -5 0 -10 5 -10
10 0 6 5 10 10 10 6 0 10 -4 10 -10z"/>
<path d="M668 1863 c18 -2 30 -9 27 -14 -4 -5 4 -9 16 -9 22 0 22 0 3 15 -10
8 -32 14 -49 13 l-30 -1 33 -4z"/>
<path d="M560 1856 c0 -2 9 -6 20 -9 11 -3 18 -1 14 4 -5 9 -34 13 -34 5z"/>
<path d="M760 1851 c0 -15 24 -29 63 -36 38 -7 43 -2 31 29 -9 25 -26 19 -20
-6 l6 -23 -11 23 c-8 15 -21 22 -41 22 -15 0 -28 -4 -28 -9z"/>
<path d="M6550 1856 c0 -2 9 -6 20 -9 11 -3 18 -1 14 4 -5 9 -34 13 -34 5z"/>
<path d="M6750 1851 c0 -15 24 -29 64 -37 35 -6 38 -5 33 10 -4 10 -7 22 -7
27 0 5 -5 9 -11 9 -6 0 -8 -9 -4 -21 6 -19 5 -20 -8 -8 -8 8 -13 17 -10 22 2
4 -10 7 -26 7 -17 0 -31 -4 -31 -9z"/>
<path d="M332 1681 c-8 -4 -45 -6 -83 -3 -48 3 -69 1 -69 -7 0 -6 8 -11 18
-11 11 0 26 -8 35 -18 14 -16 17 -43 17 -174 l0 -156 -30 -7 c-29 -6 -52 -25
-30 -25 6 0 22 -11 35 -25 24 -23 25 -30 25 -147 0 -68 -4 -129 -9 -137 -5 -8
-26 -17 -47 -20 -30 -5 -40 -11 -42 -29 l-3 -22 200 0 201 0 0 25 c0 20 -5 25
-26 25 -14 0 -34 5 -45 10 -17 10 -19 23 -19 155 l0 143 78 4 c42 2 82 1 87
-3 16 -11 142 9 188 29 174 77 193 262 36 343 -42 21 -50 23 -48 12 4 -23 -4
-29 -37 -25 -34 4 -34 5 -18 23 10 11 15 21 13 23 -2 3 -51 10 -109 16 -88 10
-115 9 -170 -3 -56 -13 -68 -13 -92 -1 -31 16 -38 17 -56 5z m308 -61 c51 -26
82 -72 88 -130 6 -61 -10 -109 -49 -146 -28 -27 -36 -29 -125 -32 l-94 -4 0
160 c0 119 3 162 13 165 32 14 130 6 167 -13z m-205 -450 c3 -5 -1 -10 -9 -10
-9 0 -16 5 -16 10 0 6 4 10 9 10 6 0 13 -4 16 -10z m-114 -221 c-18 -11 -40
-18 -49 -14 -27 10 11 31 63 34 15 1 11 -4 -14 -20z m104 -29 c3 -5 -1 -10
-10 -10 -9 0 -13 5 -10 10 3 6 8 10 10 10 2 0 7 -4 10 -10z"/>
<path d="M2821 1681 c-7 -5 -42 -6 -77 -3 -44 3 -64 1 -64 -7 0 -6 8 -11 18
-11 38 0 42 -19 42 -186 l0 -162 -30 -7 c-32 -7 -51 -25 -27 -25 8 0 25 -8 37
-18 21 -17 22 -25 21 -152 -1 -79 -6 -139 -13 -147 -6 -7 -26 -13 -44 -13 -30
0 -34 -3 -34 -25 l0 -25 201 0 200 0 -3 22 c-2 16 -12 24 -34 29 -54 11 -54
10 -54 164 l0 143 78 4 c42 2 79 0 82 -4 9 -12 149 11 193 31 52 24 78 47 111
96 46 68 30 168 -35 218 -38 28 -94 53 -84 37 3 -6 1 -10 -5 -10 -6 0 -8 -4
-5 -10 4 -6 -6 -7 -27 -3 -43 8 -45 11 -23 27 25 18 12 23 -91 36 -86 11 -165
7 -212 -11 -15 -6 -35 -4 -59 6 -41 17 -43 18 -62 6z m302 -55 c98 -42 132
-159 75 -254 -29 -48 -65 -62 -158 -62 l-80 0 0 159 c0 118 3 161 13 164 26
11 119 6 150 -7z m-193 -456 c0 -5 -4 -10 -10 -10 -5 0 -10 5 -10 10 0 6 5 10
10 10 6 0 10 -4 10 -10z m-113 -220 c-44 -24 -57 -25 -57 -6 0 13 22 20 75 25
12 0 6 -6 -18 -19z m103 -30 c0 -5 -4 -10 -10 -10 -5 0 -10 5 -10 10 0 6 5 10
10 10 6 0 10 -4 10 -10z"/>
<path d="M4370 1680 c-8 -5 -32 -7 -52 -3 -29 4 -38 2 -38 -8 0 -11 15 -14 60
-12 50 1 60 -1 60 -15 0 -37 -13 -62 -31 -62 -13 0 -19 -11 -25 -45 -3 -25 -4
-60 0 -77 11 -62 11 -131 0 -135 -11 -4 -27 113 -28 211 -1 30 -6 51 -14 54
-9 3 -12 -29 -12 -137 0 -81 -4 -141 -9 -141 -5 0 -22 -5 -37 -10 l-27 -11 34
-17 c24 -12 35 -25 37 -44 2 -20 9 -28 23 -28 25 0 25 -16 -1 -23 -17 -4 -20
-15 -22 -108 l-3 -104 -42 -9 c-36 -7 -43 -13 -43 -33 l0 -23 368 2 367 3 8
95 c4 52 13 106 19 119 11 20 10 25 -7 37 -26 19 -33 18 -58 -13 -51 -64 -126
-130 -177 -157 -46 -25 -67 -30 -127 -30 -39 -1 -75 3 -80 7 -4 5 -8 72 -8
150 l0 142 80 3 c91 2 128 -11 133 -48 3 -17 -4 -31 -25 -48 l-28 -24 53 5
c90 7 130 70 78 122 l-24 23 24 21 c31 27 30 62 -2 95 -22 21 -36 26 -77 26
l-50 0 27 -21 c15 -12 26 -30 26 -45 0 -37 -52 -56 -143 -52 l-72 3 0 150 0
150 85 0 c77 -1 91 -4 148 -34 58 -32 101 -72 145 -135 13 -18 27 -26 49 -26
30 0 30 1 24 38 -3 20 -6 76 -6 125 l0 87 -255 0 c-163 0 -255 -4 -255 -10 0
-5 5 -10 12 -10 9 0 9 -3 0 -12 -7 -7 -12 -23 -12 -37 -1 -15 -7 -37 -15 -51
-17 -31 -19 -77 -3 -82 12 -4 3 -28 -11 -28 -5 0 -13 27 -18 61 -9 53 -8 61 7
69 23 12 31 48 21 85 -8 32 -27 41 -51 25z"/>
<path d="M6460 1676 c0 -19 -26 -22 -32 -4 -4 10 -20 10 -79 -1 -119 -21 -169
-25 -169 -12 0 6 -16 11 -35 11 l-35 0 0 -100 c0 -62 -5 -108 -12 -120 -17
-27 10 -55 44 -47 21 6 75 82 70 99 -1 5 2 7 6 5 5 -1 21 13 36 31 28 33 92
74 134 87 18 5 22 2 22 -14 0 -11 8 -22 18 -24 16 -4 16 -5 0 -6 -15 -1 -18
-17 -20 -138 l-3 -137 -34 -9 -34 -8 34 -17 34 -17 3 -126 c3 -151 -4 -176
-50 -181 -25 -2 -34 -8 -36 -25 -3 -21 1 -23 42 -23 45 0 46 -1 46 -32 -1 -65
8 -111 24 -126 15 -15 16 -13 16 26 0 69 24 51 36 -27 3 -20 6 -38 7 -41 1 -3
-4 -15 -11 -27 -8 -15 -9 -29 -2 -48 5 -14 10 -35 10 -46 0 -22 30 -60 42 -53
4 3 8 -2 8 -10 0 -19 20 -22 21 -3 0 6 4 3 9 -8 8 -19 9 -19 9 4 1 16 6 21 15
18 11 -5 15 8 18 61 2 37 -1 82 -6 101 -9 29 -7 36 12 51 15 13 18 20 10 23
-9 4 -8 6 2 6 23 1 42 54 34 95 -6 35 -5 36 26 36 27 0 31 3 28 22 -2 14 -11
24 -23 26 -71 10 -66 -3 -63 160 l3 147 34 16 c27 13 30 17 17 22 -10 4 -26 7
-37 7 -18 0 -19 9 -19 163 0 163 7 204 32 179 6 -6 8 -12 3 -12 -6 0 9 -9 31
-20 23 -12 62 -41 87 -65 25 -25 50 -45 57 -45 6 0 8 -4 5 -10 -8 -13 24 -60
41 -60 8 0 13 -6 12 -12 -4 -18 37 -21 51 -4 9 11 10 20 2 35 -6 11 -11 31
-11 45 0 17 -6 26 -20 28 -12 2 -19 8 -18 13 2 6 6 9 11 7 4 -1 7 4 7 10 0 9
3 8 10 -2 6 -10 8 4 7 43 -1 38 -6 57 -14 57 -7 0 -13 5 -13 10 0 17 -33 11
-56 -11 -17 -15 -26 -18 -40 -11 -43 22 -101 41 -129 41 -16 1 -74 4 -127 7
-86 5 -98 4 -98 -10z m65 -16 c0 -22 -29 -18 -33 3 -3 14 1 18 15 15 10 -2 18
-10 18 -18z m375 -10 c0 -5 -4 -10 -10 -10 -5 0 -10 5 -10 10 0 6 5 10 10 10
6 0 10 -4 10 -10z m-550 -15 c0 -8 -6 -15 -14 -15 -17 0 -28 14 -19 24 12 12
33 6 33 -9z m223 -30 c1 -5 -6 -11 -15 -13 -11 -2 -18 3 -18 13 0 17 30 18 33
0z m292 5 c3 -5 1 -10 -4 -10 -6 0 -11 5 -11 10 0 6 2 10 4 10 3 0 8 -4 11
-10z m-605 -21 c0 -5 -7 -9 -15 -9 -15 0 -20 12 -9 23 8 8 24 -1 24 -14z m257
-15 c-9 -9 -28 6 -21 18 4 6 10 6 17 -1 6 -6 8 -13 4 -17z m-312 6 c3 -5 -1
-10 -9 -10 -9 0 -16 5 -16 10 0 6 4 10 9 10 6 0 13 -4 16 -10z m-35 -50 c0 -5
-4 -10 -10 -10 -5 0 -10 5 -10 10 0 6 5 10 10 10 6 0 10 -4 10 -10z m380 -124
c0 -3 -4 -8 -10 -11 -5 -3 -10 -1 -10 4 0 6 5 11 10 11 6 0 10 -2 10 -4z m18
-741 l1 -20 -9 20 c-5 11 -8 31 -8 45 l0 25 8 -25 c4 -14 8 -34 8 -45z"/>
<path d="M3460 1669 c0 -8 7 -10 50 -13 9 -1 15 -11 15 -26 0 -17 5 -24 15
-21 8 2 31 4 50 3 54 -1 101 8 95 19 -4 5 -1 9 4 9 6 0 11 -4 11 -10 0 -11 30
-1 47 16 7 6 9 15 5 19 -4 3 5 4 21 0 16 -4 27 -3 27 3 0 6 -65 10 -170 10
-93 0 -170 -4 -170 -9z m97 -45 c-3 -3 -12 -4 -19 -1 -8 3 -5 6 6 6 11 1 17
-2 13 -5z"/>
<path d="M4230 1670 c0 -5 5 -10 11 -10 5 0 7 5 4 10 -3 6 -8 10 -11 10 -2 0
-4 -4 -4 -10z"/>
<path d="M5563 1665 c-24 -7 -43 -10 -43 -6 0 3 -4 1 -8 -5 -4 -5 -24 -20 -45
-33 -55 -33 -88 -96 -86 -162 1 -30 8 -66 15 -80 20 -39 87 -96 144 -120 34
-14 49 -27 46 -35 -3 -8 0 -14 7 -14 6 0 1 -7 -11 -16 -12 -8 -27 -25 -33 -37
-10 -18 -6 -17 22 8 19 16 30 25 24 18 -13 -15 -7 -175 6 -168 5 4 9 37 9 75
0 38 5 72 10 75 8 5 8 11 0 20 -9 11 -6 16 10 25 13 7 26 8 31 3 5 -5 12 -48
15 -96 4 -48 11 -87 17 -87 6 0 7 31 3 84 -6 78 -6 84 11 81 10 -2 24 -4 31
-4 6 -1 12 -10 12 -21 0 -21 14 -27 24 -11 4 5 0 12 -6 14 -9 4 -8 5 2 6 32 0
135 -45 132 -58 -2 -8 3 -11 12 -8 24 9 49 -27 41 -62 -7 -34 -38 -76 -66 -91
-40 -22 -121 -30 -185 -19 -79 14 -144 54 -187 115 -75 109 -105 132 -152 114
-28 -11 -34 -44 -10 -54 12 -4 15 -26 15 -111 l0 -105 31 0 c19 0 37 8 48 21
l16 20 80 -27 c71 -25 95 -28 205 -29 113 0 130 2 175 25 63 30 134 95 151
137 18 43 18 105 -1 150 -17 41 -9 58 34 75 21 7 23 11 11 18 -21 14 -84 12
-98 -2 -9 -9 -28 -4 -79 19 -37 17 -76 33 -85 36 -10 4 -18 16 -18 27 0 11 -7
20 -15 20 -8 0 -15 -7 -15 -15 0 -8 -5 -15 -11 -15 -16 0 -7 132 9 138 7 2 12
8 12 13 0 6 -5 7 -11 3 -7 -4 -10 -2 -8 5 3 7 8 11 13 9 5 -2 13 7 17 20 9 24
29 22 29 -3 0 -9 6 -12 15 -9 9 4 18 -1 22 -12 4 -11 13 -23 20 -29 7 -5 21
-26 31 -45 13 -28 24 -36 50 -38 35 -4 54 20 33 41 -7 7 -11 51 -11 114 0 115
-1 116 -77 94 -21 -6 -57 -4 -110 5 -97 17 -215 17 -270 -1z m243 -69 c25 -17
24 -36 -2 -36 -8 0 -14 -7 -14 -15 0 -8 -6 -15 -12 -16 -10 0 -10 -2 0 -6 16
-6 15 -28 -2 -43 -11 -8 -13 -24 -9 -60 l6 -49 -34 9 c-19 5 -54 14 -77 20
-44 11 -44 11 -37 48 3 20 16 45 28 55 15 13 17 17 6 14 -21 -7 -35 49 -18 69
9 11 7 14 -7 15 -14 1 -13 3 6 9 38 13 138 4 166 -14z m-221 -15 c21 -8 30
-60 20 -118 -6 -36 -21 -41 -51 -17 -10 8 -13 12 -5 8 9 -4 12 -2 9 7 -3 8
-13 14 -24 14 -29 0 -32 63 -4 93 22 24 25 24 55 13z"/>
<path d="M5701 1584 c0 -11 3 -14 6 -6 3 7 2 16 -1 19 -3 4 -6 -2 -5 -13z"/>
<path d="M5666 1567 c3 -10 9 -15 12 -12 3 3 0 11 -7 18 -10 9 -11 8 -5 -6z"/>
<path d="M5558 1518 c-5 -28 -4 -29 9 -13 15 21 17 45 4 45 -5 0 -11 -14 -13
-32z"/>
<path d="M5578 1487 c-3 -19 -2 -25 4 -19 6 6 8 18 6 28 -3 14 -5 12 -10 -9z"/>
<path d="M3683 1593 c-18 -2 -33 -8 -33 -12 0 -5 -11 -6 -25 -3 -34 6 -97 -7
-90 -19 4 -5 1 -9 -4 -9 -6 0 -11 -9 -11 -20 0 -25 50 -35 131 -26 36 3 59 2
59 -4 0 -6 -15 -10 -32 -11 -18 0 -49 -3 -68 -5 -19 -3 -47 -5 -62 -5 -20 0
-27 -5 -26 -17 1 -9 0 -50 0 -89 -2 -65 -4 -73 -21 -73 -11 0 -27 -3 -37 -7
-13 -5 -10 -9 17 -22 l34 -16 3 -140 c3 -154 -1 -165 -60 -165 -23 0 -28 -4
-28 -25 l0 -25 347 2 348 3 16 104 c18 111 29 131 77 131 28 0 27 33 -1 38
-41 8 -76 -13 -160 -99 -100 -103 -145 -128 -229 -129 -92 0 -88 -8 -88 156
l0 144 30 19 c33 19 30 31 -7 31 -22 0 -23 3 -24 83 -1 45 0 112 1 150 1 51
-1 67 -12 65 -7 0 -28 -3 -45 -5z m-93 -73 c0 -5 -4 -10 -9 -10 -6 0 -13 5
-16 10 -3 6 1 10 9 10 9 0 16 -4 16 -10z m5 -78 c-3 -3 -11 0 -18 7 -9 10 -8
11 6 5 10 -3 15 -9 12 -12z m15 -432 c0 -5 -7 -10 -15 -10 -8 0 -15 5 -15 10
0 6 7 10 15 10 8 0 15 -4 15 -10z"/>
<path d="M5510 1155 c-7 -9 -11 -17 -9 -20 3 -2 10 5 17 15 14 24 10 26 -8 5z"/>
<path d="M5645 1149 c-4 -6 -5 -12 -2 -15 2 -3 7 2 10 11 7 17 1 20 -8 4z"/>
<path d="M5527 1093 c-11 -10 -8 -35 2 -28 5 3 12 1 16 -5 4 -6 10 -8 15 -5 6
4 4 14 -3 25 -13 21 -20 24 -30 13z"/>
<path d="M3000 893 c-144 -7 -300 -24 -456 -50 -131 -21 -164 -30 -164 -42 0
-12 -2 -13 -8 -4 -9 14 -10 13 -237 -27 -129 -23 -150 -27 -178 -29 -11 0 -15
-6 -11 -12 5 -8 1 -8 -14 0 -13 7 -22 7 -24 1 -2 -5 -26 -11 -54 -12 -44 -2
-49 -4 -35 -15 9 -7 28 -13 44 -13 17 0 27 -5 27 -15 0 -18 59 -19 141 -2 40
9 54 16 51 26 -4 11 4 13 37 7 55 -9 255 40 247 61 -4 10 -1 11 13 4 13 -8 45
-4 112 13 187 48 335 68 541 73 223 6 334 -4 503 -47 281 -71 419 -188 398
-336 l-6 -44 -43 0 -44 0 0 -50 0 -50 65 0 65 0 0 -150 0 -150 75 0 75 0 0
150 0 150 70 0 70 0 0 50 0 50 -160 0 c-146 0 -181 6 -150 25 16 10 12 113 -6
150 -26 56 -108 123 -201 166 -109 51 -339 108 -458 114 -196 11 -222 11 -285
8z m-770 -133 c0 -5 -2 -10 -4 -10 -3 0 -8 5 -11 10 -3 6 -1 10 4 10 6 0 11
-4 11 -10z m-188 -72 c-27 -10 -52 -9 -52 3 0 6 7 9 15 5 8 -3 21 1 27 8 10
10 15 11 20 2 4 -6 0 -14 -10 -18z m-77 -8 c3 -5 1 -10 -4 -10 -6 0 -11 5 -11
10 0 6 2 10 4 10 3 0 8 -4 11 -10z m1960 -295 c0 -13 -8 -21 -24 -23 -28 -4
-45 17 -29 36 17 20 53 11 53 -13z m72 14 c17 -17 4 -39 -22 -39 -27 0 -39 14
-31 35 6 18 37 20 53 4z m78 -14 c0 -22 -31 -33 -47 -17 -17 17 -1 44 24 40
15 -2 23 -10 23 -23z m75 10 c16 -19 4 -35 -25 -35 -27 0 -39 14 -31 35 7 19
40 19 56 0z m75 -10 c0 -22 -31 -33 -47 -17 -17 17 -1 44 24 40 15 -2 23 -10
23 -23z m-150 -60 c0 -22 -31 -33 -47 -17 -17 17 -1 44 24 40 15 -2 23 -10 23
-23z m0 -60 c0 -22 -31 -33 -47 -17 -17 17 -1 44 24 40 15 -2 23 -10 23 -23z
m0 -60 c0 -22 -31 -33 -47 -17 -17 17 -1 44 24 40 15 -2 23 -10 23 -23z m0
-60 c0 -22 -31 -33 -47 -17 -17 17 -1 44 24 40 15 -2 23 -10 23 -23z m0 -60
c0 -22 -31 -33 -47 -17 -17 17 -1 44 24 40 15 -2 23 -10 23 -23z"/>
<path d="M6660 775 c0 -8 2 -15 4 -15 2 0 6 7 10 15 3 8 1 15 -4 15 -6 0 -10
-7 -10 -15z"/>
<path d="M8730 767 c0 -3 24 -13 54 -21 102 -30 238 -143 287 -238 76 -149 26
-285 -133 -358 -62 -29 -87 -35 -166 -38 -81 -4 -183 7 -228 25 -9 3 -14 -2
-14 -13 0 -16 -3 -15 -16 6 -16 26 -156 101 -186 100 -10 0 -15 6 -13 12 3 7
-14 26 -37 42 -37 27 -42 28 -53 13 -10 -14 -16 -15 -38 -4 -15 6 -27 18 -27
25 0 6 -6 12 -12 12 -7 0 -24 9 -38 20 l-25 20 35 -1 c19 0 43 -6 53 -13 19
-15 24 -31 5 -20 -7 4 -8 3 -4 -4 4 -7 17 -12 29 -12 19 1 18 5 -17 35 -21 19
-43 32 -48 29 -12 -8 -39 27 -33 43 5 15 -18 23 -36 12 -12 -7 -11 -9 2 -9 9
0 21 -11 27 -24 10 -23 9 -25 -21 -32 l-31 -6 38 -20 c29 -15 37 -24 33 -39
-3 -10 -1 -22 4 -25 5 -3 9 0 9 5 0 6 4 11 10 11 5 0 7 -6 4 -13 -6 -18 21
-41 40 -34 10 4 13 1 10 -7 -6 -16 94 -83 199 -131 171 -79 348 -93 512 -41
106 34 177 82 215 149 29 48 31 58 28 137 -2 70 -8 96 -32 145 -59 122 -225
249 -341 262 -25 3 -45 3 -45 0z m-330 -587 c0 -5 -4 -10 -10 -10 -5 0 -10 5
-10 10 0 6 5 10 10 10 6 0 10 -4 10 -10z m65 -50 c19 0 20 -19 1 -26 -8 -3
-26 6 -40 21 -33 33 -33 42 -1 21 13 -9 31 -16 40 -16z"/>
<path d="M1290 710 c0 -5 4 -10 9 -10 6 0 13 5 16 10 3 6 -1 10 -9 10 -9 0
-16 -4 -16 -10z"/>
<path d="M1750 710 c20 -13 40 -13 40 0 0 6 -12 10 -27 10 -22 0 -25 -2 -13
-10z"/>
<path d="M1428 703 c-10 -2 -18 -9 -18 -13 0 -6 10 -6 24 0 17 6 26 5 30 -3 2
-7 5 -4 5 6 1 17 -8 19 -41 10z"/>
<path d="M1528 702 c-30 -4 -61 -32 -35 -32 9 0 19 5 22 10 9 14 21 12 38 -4
8 -8 27 -14 43 -13 16 2 34 -3 40 -11 8 -12 12 -12 22 0 13 16 13 16 -50 20
-38 3 -54 17 -20 19 9 0 27 2 40 3 12 2 22 -1 22 -6 0 -4 7 -8 15 -8 8 0 15
-4 15 -10 0 -5 9 -10 19 -10 11 0 23 -4 26 -10 7 -11 105 -14 105 -2 -1 14
-30 46 -36 39 -4 -4 -1 -13 6 -22 18 -22 0 -18 -19 4 -14 16 -24 18 -54 11
-31 -7 -39 -5 -51 11 -13 19 -57 23 -148 11z"/>
<path d="M7813 683 c-18 -2 -33 -8 -33 -12 0 -13 65 -69 85 -73 12 -2 24 -15
30 -36 5 -17 15 -32 22 -32 18 0 16 15 -4 36 -16 15 -15 16 18 9 34 -7 68 -38
69 -63 0 -7 7 -15 15 -18 8 -4 15 -17 15 -29 0 -31 16 -41 23 -14 4 13 -9 41
-37 82 -39 58 -45 62 -77 59 -30 -3 -35 1 -47 30 -27 68 -26 67 -79 61z m17
-23 c0 -5 -4 -10 -10 -10 -5 0 -10 5 -10 10 0 6 5 10 10 10 6 0 10 -4 10 -10z
m35 0 c-3 -5 -11 -10 -16 -10 -6 0 -7 5 -4 10 3 6 11 10 16 10 6 0 7 -4 4 -10z"/>
<path d="M7882 678 c3 -7 12 -14 21 -16 12 -2 15 1 11 12 -7 19 -38 22 -32 4z"/>
<path d="M1480 640 c0 -5 10 -10 23 -10 18 0 19 2 7 10 -19 13 -30 13 -30 0z"/>
<path d="M7935 620 c3 -5 11 -10 16 -10 6 0 7 5 4 10 -3 6 -11 10 -16 10 -6 0
-7 -4 -4 -10z"/>
<path d="M7945 531 c5 -29 19 -45 35 -39 7 2 1 15 -14 33 -25 29 -26 29 -21 6z"/>
<path d="M7986 419 c20 -22 36 -25 28 -5 -3 8 -14 16 -26 19 -19 5 -19 5 -2
-14z"/>
<path d="M1680 230 l0 -200 155 0 155 0 0 50 0 50 -75 0 -75 0 0 30 0 30 75 0
75 0 0 45 0 45 -75 0 c-73 0 -75 1 -75 25 0 23 3 24 73 27 l72 3 3 48 3 47
-155 0 -156 0 0 -200z m105 155 c0 -22 -31 -33 -47 -17 -17 17 -1 44 24 40 15
-2 23 -10 23 -23z m80 0 c0 -13 -8 -21 -24 -23 -29 -4 -44 9 -35 32 10 25 59
18 59 -9z m70 0 c0 -22 -31 -33 -47 -17 -17 17 -1 44 24 40 15 -2 23 -10 23
-23z m-150 -60 c0 -22 -31 -33 -47 -17 -17 17 -1 44 24 40 15 -2 23 -10 23
-23z m0 -60 c0 -22 -31 -33 -47 -17 -17 17 -1 44 24 40 15 -2 23 -10 23 -23z
m80 -30 c0 -13 -8 -21 -24 -23 -28 -4 -46 11 -37 33 9 25 61 16 61 -10z m70 0
c0 -22 -31 -33 -47 -17 -17 17 -1 44 24 40 15 -2 23 -10 23 -23z m-150 -30 c0
-22 -31 -33 -47 -17 -17 17 -1 44 24 40 15 -2 23 -10 23 -23z m0 -60 c0 -22
-31 -33 -47 -17 -17 17 -1 44 24 40 15 -2 23 -10 23 -23z m0 -60 c0 -22 -31
-33 -47 -17 -17 17 -1 44 24 40 15 -2 23 -10 23 -23z m80 0 c0 -13 -8 -21 -24
-23 -28 -4 -46 11 -37 33 9 25 61 16 61 -10z m70 0 c0 -22 -31 -33 -47 -17
-17 17 -1 44 24 40 15 -2 23 -10 23 -23z"/>
<path d="M2050 230 l0 -200 75 0 74 0 3 96 3 96 80 -95 80 -96 73 0 72 -1 0
200 0 200 -75 0 -75 0 0 -95 c0 -52 -3 -95 -7 -95 -5 1 -39 43 -78 95 l-70 95
-77 0 -78 0 0 -200z m95 155 c0 -22 -31 -33 -47 -17 -17 17 -1 44 24 40 15 -2
23 -10 23 -23z m320 0 c0 -13 -8 -21 -24 -23 -32 -5 -48 12 -31 33 18 22 55
15 55 -10z m-250 -34 c0 -8 -8 -19 -17 -25 -14 -8 -21 -7 -34 6 -9 9 -13 21
-9 28 10 15 60 8 60 -9z m-70 -26 c0 -22 -31 -33 -47 -17 -17 17 -1 44 24 40
15 -2 23 -10 23 -23z m320 0 c0 -13 -8 -21 -24 -23 -29 -4 -44 9 -35 32 10 25
59 18 59 -9z m-216 -14 c21 -13 5 -41 -23 -41 -30 0 -42 16 -26 35 14 17 29
19 49 6z m-104 -46 c0 -22 -31 -33 -47 -17 -17 17 -1 44 24 40 15 -2 23 -10
23 -23z m320 0 c0 -13 -8 -21 -24 -23 -32 -5 -48 12 -31 33 18 22 55 15 55
-10z m-162 -19 c7 -17 -11 -36 -34 -36 -22 0 -33 16 -25 35 7 19 52 19 59 1z
m-158 -41 c0 -22 -31 -33 -47 -17 -17 17 -1 44 24 40 15 -2 23 -10 23 -23z
m320 0 c0 -13 -8 -21 -24 -23 -29 -4 -44 9 -35 32 10 25 59 18 59 -9z m-110
-30 c0 -13 -8 -21 -24 -23 -28 -4 -46 11 -37 33 9 25 61 16 61 -10z m-210 -30
c0 -22 -31 -33 -47 -17 -17 17 -1 44 24 40 15 -2 23 -10 23 -23z m320 0 c0
-16 -7 -20 -30 -20 -16 0 -35 -6 -41 -14 -15 -19 -49 -10 -49 14 0 15 7 20 25
20 14 0 29 6 33 13 14 21 62 11 62 -13z m-320 -60 c0 -22 -31 -33 -47 -17 -17
17 -1 44 24 40 15 -2 23 -10 23 -23z m320 0 c0 -26 -49 -34 -59 -10 -9 25 3
37 32 33 19 -2 27 -9 27 -23z"/>
<path d="M2560 380 l0 -50 65 0 65 0 0 -150 0 -150 80 0 80 0 0 150 0 150 65
0 65 0 0 50 0 50 -210 0 -210 0 0 -50z m85 5 c0 -23 -30 -32 -51 -14 -11 9
-12 15 -2 26 17 20 53 12 53 -12z m72 14 c17 -17 4 -39 -22 -39 -27 0 -39 14
-31 35 6 18 37 20 53 4z m78 -14 c0 -22 -31 -33 -47 -17 -17 17 -1 44 24 40
15 -2 23 -10 23 -23z m75 10 c16 -19 4 -35 -26 -35 -28 0 -44 28 -23 41 20 13
35 11 49 -6z m75 -10 c0 -22 -31 -33 -47 -17 -17 17 -1 44 24 40 15 -2 23 -10
23 -23z m-150 -60 c0 -22 -31 -33 -47 -17 -17 17 -1 44 24 40 15 -2 23 -10 23
-23z m0 -60 c0 -22 -31 -33 -47 -17 -17 17 -1 44 24 40 15 -2 23 -10 23 -23z
m0 -60 c0 -22 -31 -33 -47 -17 -17 17 -1 44 24 40 15 -2 23 -10 23 -23z m0
-60 c0 -22 -31 -33 -47 -17 -17 17 -1 44 24 40 15 -2 23 -10 23 -23z m0 -60
c0 -22 -31 -33 -47 -17 -17 17 -1 44 24 40 15 -2 23 -10 23 -23z"/>
<path d="M3030 230 l0 -200 150 0 150 0 0 50 0 49 -72 3 c-70 3 -73 4 -73 28
0 24 3 25 73 28 l72 3 0 44 0 44 -72 3 c-67 3 -73 5 -76 26 -3 21 0 22 72 22
l76 0 0 50 0 50 -150 0 -150 0 0 -200z m97 169 c17 -17 4 -39 -22 -39 -27 0
-39 14 -31 35 6 18 37 20 53 4z m78 -14 c0 -22 -31 -33 -47 -17 -17 17 -1 44
24 40 15 -2 23 -10 23 -23z m75 10 c16 -19 4 -35 -25 -35 -27 0 -39 14 -31 35
7 19 40 19 56 0z m-153 -56 c17 -17 4 -39 -22 -39 -27 0 -39 14 -31 35 6 18
37 20 53 4z m0 -60 c17 -17 4 -39 -22 -39 -27 0 -39 14 -31 35 6 18 37 20 53
4z m78 -44 c0 -22 -31 -33 -47 -17 -17 17 -1 44 24 40 15 -2 23 -10 23 -23z
m78 13 c7 -22 -4 -38 -28 -38 -27 0 -39 14 -31 35 7 18 53 20 59 3z m-156 -29
c17 -17 4 -39 -22 -39 -27 0 -39 14 -31 35 6 18 37 20 53 4z m6 -63 c7 -17
-11 -36 -34 -36 -22 0 -33 16 -25 35 7 19 52 19 59 1z m0 -60 c7 -17 -11 -36
-34 -36 -22 0 -33 16 -25 35 7 19 52 19 59 1z m72 -11 c0 -22 -31 -33 -47 -17
-17 17 -1 44 24 40 15 -2 23 -10 23 -23z m78 13 c7 -22 -4 -38 -28 -38 -27 0
-39 14 -31 35 7 18 53 20 59 3z"/>
<path d="M3390 230 l0 -200 75 0 74 0 3 58 3 57 39 -58 39 -57 94 0 94 0 -66
79 -65 79 30 12 c40 16 60 51 60 102 0 54 -21 85 -74 109 -33 15 -66 19 -173
19 l-133 0 0 -200z m100 165 c16 -19 4 -35 -26 -35 -28 0 -44 28 -23 41 20 13
35 11 49 -6z m75 -10 c0 -22 -31 -33 -47 -17 -17 17 -1 44 24 40 15 -2 23 -10
23 -23z m73 13 c17 -17 15 -26 -7 -37 -13 -7 -24 -6 -37 3 -15 12 -16 16 -5
30 16 19 33 20 49 4z m72 -49 c0 -11 -6 -19 -12 -20 -7 0 -3 -4 10 -10 30 -11
25 -43 -6 -47 -20 -3 -21 -6 -10 -19 17 -21 -16 -47 -43 -32 -24 12 -24 24 -1
41 17 13 23 51 9 64 -11 12 -8 42 6 47 22 7 47 -5 47 -24z m-216 -15 c9 -22
-1 -34 -29 -34 -27 0 -39 14 -31 35 7 20 52 19 60 -1z m117 -20 c19 -23 -1
-48 -40 -52 -30 -3 -31 -2 -31 32 0 33 2 36 29 36 16 0 34 -7 42 -16z m-116
-49 c0 -13 -8 -21 -24 -23 -28 -4 -46 11 -37 33 9 25 61 16 61 -10z m-5 -47
c0 -9 3 -9 12 0 16 16 55 15 61 0 4 -10 8 -10 15 0 13 18 56 11 60 -10 4 -21
-34 -34 -53 -18 -8 7 -20 8 -27 4 -19 -13 -116 -15 -124 -3 -3 5 -3 16 0 24 6
18 56 20 56 3z m5 -73 c0 -13 -8 -21 -24 -23 -28 -4 -46 11 -37 33 9 25 61 16
61 -10z m170 0 c0 -23 -30 -32 -51 -14 -11 9 -12 15 -2 26 17 20 53 12 53 -12z
m-171 -44 c11 -17 -6 -41 -29 -41 -27 0 -39 14 -31 35 6 16 51 20 60 6z m211
-16 c0 -13 -8 -21 -24 -23 -32 -5 -48 12 -31 33 18 22 55 15 55 -10z"/>
<path d="M4290 243 c-45 -103 -85 -194 -87 -200 -4 -10 15 -13 76 -13 70 0 82
3 91 20 9 18 21 20 95 20 75 0 84 -2 90 -20 6 -18 15 -20 86 -20 72 0 80 2 75
18 -3 9 -42 98 -85 197 l-80 180 -89 3 -89 3 -83 -188z m235 141 c1 -12 6 -28
13 -36 6 -8 8 -18 4 -22 -4 -4 1 -14 12 -21 11 -8 16 -20 12 -30 -3 -9 0 -18
9 -21 8 -4 15 -17 15 -30 0 -13 5 -24 11 -24 7 0 9 -10 7 -25 -4 -16 -1 -25 8
-25 19 0 27 -19 15 -34 -9 -11 -7 -15 10 -19 31 -8 21 -41 -14 -45 -17 -2 -27
2 -28 10 -1 7 -2 20 -3 28 -1 11 -13 15 -46 15 -38 0 -45 3 -45 20 0 14 8 21
28 23 15 2 27 -2 27 -8 0 -6 5 -8 12 -4 8 5 6 11 -7 20 -10 7 -15 20 -12 28 4
9 -1 19 -10 24 -10 6 -14 17 -10 31 3 14 0 21 -8 21 -20 0 -28 19 -16 34 9 11
7 15 -10 19 -16 4 -20 11 -16 26 3 11 0 25 -7 30 -16 13 -48 -12 -40 -33 4
-11 -1 -19 -17 -24 -14 -6 -18 -11 -11 -16 14 -8 4 -36 -13 -36 -8 0 -11 -8
-8 -21 4 -14 0 -25 -10 -31 -9 -5 -14 -15 -10 -24 3 -8 -2 -21 -12 -28 -13 -9
-15 -15 -7 -20 7 -4 12 -2 12 4 0 6 12 10 28 8 19 -2 27 -9 27 -23 0 -23 -43
-34 -55 -15 -6 9 -12 9 -28 -1 -14 -9 -18 -17 -11 -25 12 -15 -13 -37 -38 -32
-26 5 -29 38 -4 45 17 4 19 8 10 19 -13 16 -4 34 18 34 12 0 13 3 4 14 -9 11
-8 17 4 29 8 9 15 25 15 37 0 11 6 23 14 26 8 3 12 13 9 25 -3 11 1 21 10 25
9 3 13 13 10 25 -4 15 0 22 16 26 17 4 19 8 10 19 -19 23 0 33 64 31 56 -2 62
-4 62 -23z m-26 -201 c1 -9 -13 -13 -40 -13 -38 0 -41 2 -35 23 3 13 13 41 22
63 l17 39 18 -50 c9 -27 18 -56 18 -62z m-14 -58 c0 -22 -31 -33 -47 -17 -17
17 -1 44 24 40 15 -2 23 -10 23 -23z"/>
<path d="M4760 230 l0 -200 80 0 80 0 0 200 0 200 -80 0 -80 0 0 -200z m105
155 c0 -22 -31 -33 -47 -17 -17 17 -1 44 24 40 15 -2 23 -10 23 -23z m0 -60
c0 -22 -31 -33 -47 -17 -17 17 -1 44 24 40 15 -2 23 -10 23 -23z m0 -60 c0
-22 -31 -33 -47 -17 -17 17 -1 44 24 40 15 -2 23 -10 23 -23z m0 -60 c0 -22
-31 -33 -47 -17 -17 17 -1 44 24 40 15 -2 23 -10 23 -23z m0 -60 c0 -22 -31
-33 -47 -17 -17 17 -1 44 24 40 15 -2 23 -10 23 -23z m0 -60 c0 -22 -31 -33
-47 -17 -17 17 -1 44 24 40 15 -2 23 -10 23 -23z"/>
<path d="M4980 230 l0 -200 80 0 79 0 3 96 3 96 80 -96 80 -96 73 0 72 0 0
200 0 200 -75 0 -75 0 0 -95 c0 -52 -3 -95 -7 -95 -5 1 -39 43 -78 95 l-70 94
-82 1 -83 0 0 -200z m105 155 c0 -22 -31 -33 -47 -17 -17 17 -1 44 24 40 15
-2 23 -10 23 -23z m319 9 c9 -22 -1 -34 -29 -34 -27 0 -39 14 -31 35 7 20 52
19 60 -1z m-249 -43 c0 -8 -8 -19 -17 -25 -14 -8 -21 -7 -34 6 -9 9 -13 21 -9
28 10 15 60 8 60 -9z m-70 -26 c0 -22 -31 -33 -47 -17 -17 17 -1 44 24 40 15
-2 23 -10 23 -23z m320 0 c0 -13 -8 -21 -24 -23 -28 -4 -46 11 -37 33 9 25 61
16 61 -10z m-215 -20 c16 -19 4 -35 -25 -35 -29 0 -41 16 -25 35 16 19 34 19
50 0z m-105 -40 c0 -22 -31 -33 -47 -17 -17 17 -1 44 24 40 15 -2 23 -10 23
-23z m320 0 c0 -13 -8 -21 -24 -23 -28 -4 -46 11 -37 33 9 25 61 16 61 -10z
m-162 -19 c7 -17 -11 -36 -34 -36 -22 0 -33 16 -25 35 7 19 52 19 59 1z m-158
-41 c0 -22 -31 -33 -47 -17 -17 17 -1 44 24 40 15 -2 23 -10 23 -23z m320 0
c0 -13 -8 -21 -24 -23 -28 -4 -46 11 -37 33 9 25 61 16 61 -10z m-110 -15 c9
-15 -14 -40 -36 -40 -22 0 -33 16 -25 35 6 17 52 20 61 5z m-210 -45 c0 -22
-31 -33 -47 -17 -17 17 -1 44 24 40 15 -2 23 -10 23 -23z m320 0 c0 -16 -7
-20 -30 -20 -16 0 -35 -6 -41 -14 -15 -19 -49 -10 -49 14 0 15 7 20 25 20 14
0 29 6 33 13 14 21 62 11 62 -13z m-320 -60 c0 -22 -31 -33 -47 -17 -17 17 -1
44 24 40 15 -2 23 -10 23 -23z m320 0 c0 -13 -8 -21 -24 -23 -28 -4 -46 11
-37 33 9 25 61 16 61 -10z"/>
<path d="M5510 230 l0 -200 75 0 75 0 0 103 0 102 65 -110 c35 -60 68 -108 72
-106 4 2 36 51 70 110 l63 106 0 -102 0 -103 75 0 75 0 0 200 0 200 -88 0 -88
0 -54 -92 c-39 -66 -56 -87 -63 -77 -4 8 -28 49 -53 92 l-45 77 -89 0 -90 0 0
-200z m105 155 c0 -13 -8 -21 -24 -23 -28 -4 -45 17 -29 36 17 20 53 11 53
-13z m412 14 c17 -17 4 -39 -22 -39 -27 0 -39 14 -31 35 6 18 37 20 53 4z
m-342 -44 c0 -22 -31 -33 -47 -17 -17 17 -1 44 24 40 15 -2 23 -10 23 -23z
m270 0 c0 -22 -31 -33 -47 -17 -17 17 -1 44 24 40 15 -2 23 -10 23 -23z m-340
-30 c0 -13 -8 -21 -24 -23 -28 -4 -45 17 -29 36 17 20 53 11 53 -13z m412 14
c17 -17 4 -39 -22 -39 -27 0 -39 14 -31 35 6 18 37 20 53 4z m-309 -35 c3 -23
-18 -37 -43 -28 -18 7 -20 40 -2 47 23 10 42 2 45 -19z m196 20 c9 -3 16 -14
16 -24 0 -20 -23 -32 -45 -24 -18 7 -20 40 -2 47 6 3 13 6 14 6 1 1 8 -2 17
-5z m-299 -59 c0 -23 -30 -32 -51 -14 -11 9 -12 15 -2 26 17 20 53 12 53 -12z
m412 14 c17 -17 4 -39 -22 -39 -27 0 -39 14 -31 35 6 18 37 20 53 4z m-274
-23 c7 -17 -11 -36 -34 -36 -22 0 -33 16 -25 35 7 19 52 19 59 1z m142 -11 c0
-23 -30 -32 -50 -15 -21 18 -7 42 24 38 18 -2 26 -9 26 -23z m-280 -40 c0 -23
-30 -32 -51 -14 -11 9 -12 15 -2 26 17 20 53 12 53 -12z m413 13 c15 -15 -3
-38 -29 -38 -22 0 -33 16 -25 35 7 18 37 20 54 3z m-248 -13 c16 -19 4 -35
-25 -35 -13 0 -27 5 -30 10 -8 13 13 40 30 40 7 0 18 -7 25 -15z m80 0 c16
-19 4 -35 -25 -35 -13 0 -27 5 -30 10 -8 13 13 40 30 40 7 0 18 -7 25 -15z
m-245 -60 c0 -23 -30 -32 -51 -14 -11 9 -12 15 -2 26 17 20 53 12 53 -12z
m215 -4 c0 -17 -30 -32 -50 -26 -24 8 -26 31 -3 44 18 10 53 -2 53 -18z m203
15 c7 -17 -11 -36 -34 -36 -22 0 -33 16 -25 35 7 19 52 19 59 1z m-418 -71 c0
-23 -30 -32 -51 -14 -11 9 -12 15 -2 26 17 20 53 12 53 -12z m413 13 c15 -15
-3 -38 -29 -38 -22 0 -33 16 -25 35 7 18 37 20 54 3z"/>
<path d="M6140 230 l0 -200 155 0 155 0 0 50 0 50 -75 0 -75 0 0 30 0 30 75 0
75 0 0 45 0 45 -75 0 c-73 0 -75 1 -75 25 0 23 3 24 73 27 l72 3 3 48 3 47
-155 0 -156 0 0 -200z m105 155 c0 -23 -30 -32 -51 -14 -11 9 -12 15 -2 26 17
20 53 12 53 -12z m75 10 c16 -19 4 -35 -25 -35 -27 0 -39 14 -31 35 7 19 40
19 56 0z m75 -10 c0 -22 -31 -33 -47 -17 -17 17 -1 44 24 40 15 -2 23 -10 23
-23z m-150 -60 c0 -23 -30 -32 -51 -14 -11 9 -12 15 -2 26 17 20 53 12 53 -12z
m0 -60 c0 -23 -30 -32 -51 -14 -11 9 -12 15 -2 26 17 20 53 12 53 -12z m78
-17 c7 -22 -4 -38 -28 -38 -27 0 -39 14 -31 35 7 18 53 20 59 3z m72 -13 c0
-22 -31 -33 -47 -17 -17 17 -1 44 24 40 15 -2 23 -10 23 -23z m-150 -30 c0
-23 -30 -32 -51 -14 -11 9 -12 15 -2 26 17 20 53 12 53 -12z m0 -60 c0 -23
-30 -32 -51 -14 -11 9 -12 15 -2 26 17 20 53 12 53 -12z m0 -60 c0 -23 -30
-32 -51 -14 -11 9 -12 15 -2 26 17 20 53 12 53 -12z m78 13 c7 -22 -4 -38 -28
-38 -27 0 -39 14 -31 35 7 18 53 20 59 3z m72 -13 c0 -22 -31 -33 -47 -17 -17
17 -1 44 24 40 15 -2 23 -10 23 -23z"/>
<path d="M6500 230 l0 -200 80 0 79 0 3 95 3 96 80 -95 80 -96 73 0 72 0 0
200 0 200 -75 0 -75 0 0 -95 c0 -52 -3 -95 -7 -95 -5 0 -39 43 -78 95 l-70 94
-82 1 -83 0 0 -200z m105 155 c0 -22 -31 -33 -47 -17 -17 17 -1 44 24 40 15
-2 23 -10 23 -23z m315 10 c16 -19 4 -35 -25 -35 -27 0 -39 14 -31 35 7 19 40
19 56 0z m-245 -44 c0 -8 -8 -19 -17 -25 -14 -8 -21 -7 -34 6 -9 9 -13 21 -9
28 10 15 60 8 60 -9z m-70 -26 c0 -22 -31 -33 -47 -17 -17 17 -1 44 24 40 15
-2 23 -10 23 -23z m320 0 c0 -13 -8 -21 -24 -23 -28 -4 -46 11 -37 33 9 25 61
16 61 -10z m-215 -20 c16 -19 4 -35 -25 -35 -29 0 -41 16 -25 35 16 19 34 19
50 0z m-105 -40 c0 -22 -31 -33 -47 -17 -17 17 -1 44 24 40 15 -2 23 -10 23
-23z m320 0 c0 -13 -8 -21 -24 -23 -28 -4 -46 11 -37 33 9 25 61 16 61 -10z
m-170 -30 c0 -22 -31 -33 -47 -17 -17 17 -1 44 24 40 15 -2 23 -10 23 -23z
m-150 -30 c0 -22 -31 -33 -47 -17 -17 17 -1 44 24 40 15 -2 23 -10 23 -23z
m320 0 c0 -13 -8 -21 -24 -23 -28 -4 -46 11 -37 33 9 25 61 16 61 -10z m-110
-15 c9 -15 -14 -40 -36 -40 -22 0 -33 16 -25 35 6 17 52 20 61 5z m-210 -45
c0 -22 -31 -33 -47 -17 -17 17 -1 44 24 40 15 -2 23 -10 23 -23z m320 0 c0
-16 -7 -20 -30 -20 -16 0 -35 -6 -41 -14 -15 -19 -49 -10 -49 14 0 15 7 20 25
20 14 0 29 6 33 13 14 21 62 11 62 -13z m-320 -60 c0 -22 -31 -33 -47 -17 -17
17 -1 44 24 40 15 -2 23 -10 23 -23z m320 0 c0 -13 -8 -21 -24 -23 -28 -4 -46
11 -37 33 9 25 61 16 61 -10z"/>
<path d="M7020 380 l0 -50 65 0 65 0 0 -150 0 -150 75 0 75 0 0 150 0 150 70
0 70 0 0 50 0 50 -210 0 -210 0 0 -50z m85 5 c0 -13 -8 -21 -24 -23 -28 -4
-45 17 -29 36 17 20 53 11 53 -13z m72 14 c8 -8 16 -7 30 2 24 15 53 6 53 -16
0 -22 -29 -30 -53 -15 -15 9 -22 10 -25 1 -5 -14 -49 -15 -57 -1 -18 30 27 54
52 29z m150 0 c17 -17 4 -39 -22 -39 -27 0 -39 14 -31 35 6 18 37 20 53 4z
m78 -14 c0 -22 -31 -33 -47 -17 -17 17 -1 44 24 40 15 -2 23 -10 23 -23z
m-150 -60 c0 -23 -30 -32 -51 -14 -11 9 -12 15 -2 26 17 20 53 12 53 -12z m0
-60 c0 -23 -30 -32 -51 -14 -11 9 -12 15 -2 26 17 20 53 12 53 -12z m0 -60 c0
-23 -30 -32 -51 -14 -11 9 -12 15 -2 26 17 20 53 12 53 -12z m0 -60 c0 -23
-30 -32 -51 -14 -11 9 -12 15 -2 26 17 20 53 12 53 -12z m0 -60 c0 -23 -30
-32 -51 -14 -11 9 -12 15 -2 26 17 20 53 12 53 -12z"/>
</g>
</svg>
